<svg xmlns="http://www.w3.org/2000/svg" viewBox="0 0 64 64" fill="none" aria-hidden="true">
  <path d="M16 46h32" stroke="#6f3845" stroke-width="1.3" stroke-linecap="round"/>
  <path d="M18 46V34c0-2 2.5-3.5 5-3.5h18c2.5 0 5 1.5 5 3.5v12" stroke="#6f3845" stroke-width="1.3" stroke-linejoin="round"/>
  <path d="M22 34V26c0-1.8 2-3 4-3h12c2 0 4 1.2 4 3v8" stroke="#6f3845" stroke-width="1.3" stroke-linejoin="round"/>
  <path d="M26 26V20c0-1.5 1.8-2.5 3.5-2.5h9c1.7 0 3.5 1 3.5 2.5v6" stroke="#6f3845" stroke-width="1.3" stroke-linejoin="round"/>
  <path d="M30 17v-4M34 17v-5" stroke="#6f3845" stroke-width="1.1" stroke-linecap="round"/>
  <circle cx="32" cy="11" r="1.2" fill="#6f3845"/>
  <path d="M24 30h16M26 22h12" stroke="#6f3845" stroke-width="1" opacity="0.55" stroke-linecap="round"/>
  <path d="M14 50h36" stroke="#6f3845" stroke-width="1.4" stroke-linecap="round"/>
</svg>
