<svg xmlns="http://www.w3.org/2000/svg" viewBox="0 0 64 64" fill="none" aria-hidden="true">
  <path d="M30 10h4v34h-4z" stroke="#6f3845" stroke-width="1.3" stroke-linejoin="round"/>
  <path d="M26 44h12l-2 8H28l-2-8z" stroke="#6f3845" stroke-width="1.3" stroke-linejoin="round"/>
  <path d="M24 52h16" stroke="#6f3845" stroke-width="1.2" stroke-linecap="round"/>
  <path d="M34 8c4 0 7 2.5 7 6.5S38 21 34 21" stroke="#6f3845" stroke-width="1.2"/>
  <path d="M41 6c2-3 5-4 8-3M46 3l2 2" stroke="#6f3845" stroke-width="1.1" stroke-linecap="round"/>
  <path d="M14 24l4 14M16 22l3 10" stroke="#6f3845" stroke-width="1.2" stroke-linecap="round"/>
  <path d="M12 38l5 2M10 42l4 1" stroke="#6f3845" stroke-width="1.1" stroke-linecap="round"/>
  <path d="M18 20l3 12M20 18l2 8" stroke="#6f3845" stroke-width="1.2" stroke-linecap="round"/>
  <ellipse cx="17" cy="48" rx="3" ry="5" stroke="#6f3845" stroke-width="1.2"/>
  <ellipse cx="24" cy="50" rx="3" ry="5" stroke="#6f3845" stroke-width="1.2"/>
</svg>
