<svg xmlns="http://www.w3.org/2000/svg" width="50" height="50" fill="none" viewBox="0 0 50 50">
  <path fill="#422EFF" fill-rule="evenodd" d="M26.525 45.179c12.549-13.396 15.142-17.487 15.142-25.423 0-8.247-7.462-15.59-16.667-15.59-9.205 0-16.666 7.343-16.666 15.59 0 7.936 2.593 12.027 15.156 25.424.82.874 2.216.873 3.035-.001ZM25 26.042a5.208 5.208 0 1 0 0-10.417 5.208 5.208 0 0 0 0 10.417Z" clip-rule="evenodd"/>
  <path fill="#fff" d="M25 26.042a5.208 5.208 0 1 0 0-10.417 5.208 5.208 0 0 0 0 10.417Z"/>
</svg>
