<svg width="24" height="24" viewBox="0 0 24 24" fill="none" xmlns="http://www.w3.org/2000/svg">
<path d="M9.33397 12C9.33397 10.5273 10.5276 9.33312 12.0003 9.33312C13.4731 9.33312 14.6673 10.5273 14.6673 12C14.6673 13.4727 13.4731 14.6669 12.0003 14.6669C10.5276 14.6669 9.33397 13.4727 9.33397 12ZM7.89225 12C7.89225 14.2688 9.73143 16.1079 12.0003 16.1079C14.2692 16.1079 16.1084 14.2688 16.1084 12C16.1084 9.7312 14.2692 7.8921 12.0003 7.8921C9.73143 7.8921 7.89225 9.7312 7.89225 12ZM15.311 7.72922C15.3109 7.91909 15.3671 8.10471 15.4726 8.26263C15.578 8.42054 15.7279 8.54365 15.9033 8.61638C16.0787 8.68911 16.2717 8.7082 16.4579 8.67123C16.6442 8.63426 16.8153 8.5429 16.9496 8.40869C17.0839 8.27449 17.1754 8.10347 17.2125 7.91726C17.2497 7.73106 17.2307 7.53802 17.1581 7.36258C17.0855 7.18713 16.9625 7.03715 16.8047 6.9316C16.6469 6.82605 16.4613 6.76968 16.2714 6.7696H16.271C16.0165 6.76972 15.7724 6.87085 15.5924 7.05077C15.4124 7.2307 15.3112 7.47471 15.311 7.72922ZM8.76819 18.5118C7.98819 18.4763 7.56424 18.3464 7.2825 18.2366C6.90898 18.0912 6.64247 17.918 6.36227 17.6382C6.08207 17.3584 5.90862 17.0922 5.76385 16.7187C5.65402 16.4371 5.52409 16.013 5.48864 15.233C5.44985 14.3898 5.44211 14.1364 5.44211 12.0001C5.44211 9.86368 5.45049 9.61107 5.48864 8.7671C5.52416 7.98714 5.65504 7.5639 5.76385 7.28147C5.90926 6.90797 6.08245 6.64147 6.36227 6.36128C6.64209 6.08109 6.90834 5.90765 7.2825 5.76288C7.56411 5.65306 7.98819 5.52314 8.76819 5.48768C9.61149 5.4489 9.86481 5.44115 12.0003 5.44115C14.1358 5.44115 14.3894 5.44954 15.2334 5.48768C16.0134 5.5232 16.4367 5.65408 16.7191 5.76288C17.0926 5.90765 17.3591 6.08147 17.6393 6.36128C17.9195 6.64109 18.0923 6.90797 18.2378 7.28147C18.3476 7.56307 18.4775 7.98714 18.513 8.7671C18.5518 9.61107 18.5595 9.86368 18.5595 12.0001C18.5595 14.1364 18.5518 14.3891 18.513 15.233C18.4774 16.013 18.3469 16.4369 18.2378 16.7187C18.0923 17.0922 17.9192 17.3587 17.6393 17.6382C17.3595 17.9178 17.0926 18.0912 16.7191 18.2366C16.4375 18.3464 16.0134 18.4764 15.2334 18.5118C14.3901 18.5506 14.1368 18.5583 12.0003 18.5583C9.86385 18.5583 9.61123 18.5506 8.76819 18.5118ZM8.70195 4.04845C7.85027 4.08723 7.26829 4.22227 6.76005 4.42003C6.23369 4.62426 5.7881 4.89824 5.34284 5.34278C4.89757 5.78733 4.62428 6.2336 4.42005 6.75994C4.22228 7.26848 4.08724 7.85011 4.04845 8.70176C4.00902 9.55475 4 9.82746 4 12C4 14.1725 4.00902 14.4452 4.04845 15.2982C4.08724 16.15 4.22228 16.7315 4.42005 17.2401C4.62428 17.7661 4.89764 18.2129 5.34284 18.6572C5.78804 19.1016 6.23369 19.3752 6.76005 19.58C7.26925 19.7777 7.85027 19.9128 8.70195 19.9516C9.55542 19.9903 9.82769 20 12.0003 20C14.173 20 14.4457 19.991 15.2987 19.9516C16.1504 19.9128 16.732 19.7777 17.2406 19.58C17.7666 19.3752 18.2125 19.1018 18.6578 18.6572C19.1031 18.2127 19.3758 17.7661 19.5806 17.2401C19.7784 16.7315 19.914 16.1499 19.9522 15.2982C19.991 14.4446 20 14.1725 20 12C20 9.82746 19.991 9.55475 19.9522 8.70176C19.9134 7.85005 19.7784 7.26816 19.5806 6.75994C19.3758 6.23392 19.1024 5.78803 18.6578 5.34278C18.2132 4.89754 17.7666 4.62426 17.2412 4.42003C16.732 4.22227 16.1504 4.08659 15.2993 4.04845C14.4463 4.00966 14.1736 4 12.001 4C9.82833 4 9.55542 4.00902 8.70195 4.04845Z" fill="#1D1D1D"/>
<path d="M9.33397 12C9.33397 10.5273 10.5276 9.33312 12.0003 9.33312C13.4731 9.33312 14.6673 10.5273 14.6673 12C14.6673 13.4727 13.4731 14.6669 12.0003 14.6669C10.5276 14.6669 9.33397 13.4727 9.33397 12ZM7.89225 12C7.89225 14.2688 9.73143 16.1079 12.0003 16.1079C14.2692 16.1079 16.1084 14.2688 16.1084 12C16.1084 9.7312 14.2692 7.8921 12.0003 7.8921C9.73143 7.8921 7.89225 9.7312 7.89225 12ZM15.311 7.72922C15.3109 7.91909 15.3671 8.10471 15.4726 8.26263C15.578 8.42054 15.7279 8.54365 15.9033 8.61638C16.0787 8.68911 16.2717 8.7082 16.4579 8.67123C16.6442 8.63426 16.8153 8.5429 16.9496 8.40869C17.0839 8.27449 17.1754 8.10347 17.2125 7.91726C17.2497 7.73106 17.2307 7.53802 17.1581 7.36258C17.0855 7.18713 16.9625 7.03715 16.8047 6.9316C16.6469 6.82605 16.4613 6.76968 16.2714 6.7696H16.271C16.0165 6.76972 15.7724 6.87085 15.5924 7.05077C15.4124 7.2307 15.3112 7.47471 15.311 7.72922ZM8.76819 18.5118C7.98819 18.4763 7.56424 18.3464 7.2825 18.2366C6.90898 18.0912 6.64247 17.918 6.36227 17.6382C6.08207 17.3584 5.90862 17.0922 5.76385 16.7187C5.65402 16.4371 5.52409 16.013 5.48864 15.233C5.44985 14.3898 5.44211 14.1364 5.44211 12.0001C5.44211 9.86368 5.45049 9.61107 5.48864 8.7671C5.52416 7.98714 5.65504 7.5639 5.76385 7.28147C5.90926 6.90797 6.08245 6.64147 6.36227 6.36128C6.64209 6.08109 6.90834 5.90765 7.2825 5.76288C7.56411 5.65306 7.98819 5.52314 8.76819 5.48768C9.61149 5.4489 9.86481 5.44115 12.0003 5.44115C14.1358 5.44115 14.3894 5.44954 15.2334 5.48768C16.0134 5.5232 16.4367 5.65408 16.7191 5.76288C17.0926 5.90765 17.3591 6.08147 17.6393 6.36128C17.9195 6.64109 18.0923 6.90797 18.2378 7.28147C18.3476 7.56307 18.4775 7.98714 18.513 8.7671C18.5518 9.61107 18.5595 9.86368 18.5595 12.0001C18.5595 14.1364 18.5518 14.3891 18.513 15.233C18.4774 16.013 18.3469 16.4369 18.2378 16.7187C18.0923 17.0922 17.9192 17.3587 17.6393 17.6382C17.3595 17.9178 17.0926 18.0912 16.7191 18.2366C16.4375 18.3464 16.0134 18.4764 15.2334 18.5118C14.3901 18.5506 14.1368 18.5583 12.0003 18.5583C9.86385 18.5583 9.61123 18.5506 8.76819 18.5118ZM8.70195 4.04845C7.85027 4.08723 7.26829 4.22227 6.76005 4.42003C6.23369 4.62426 5.7881 4.89824 5.34284 5.34278C4.89757 5.78733 4.62428 6.2336 4.42005 6.75994C4.22228 7.26848 4.08724 7.85011 4.04845 8.70176C4.00902 9.55475 4 9.82746 4 12C4 14.1725 4.00902 14.4452 4.04845 15.2982C4.08724 16.15 4.22228 16.7315 4.42005 17.2401C4.62428 17.7661 4.89764 18.2129 5.34284 18.6572C5.78804 19.1016 6.23369 19.3752 6.76005 19.58C7.26925 19.7777 7.85027 19.9128 8.70195 19.9516C9.55542 19.9903 9.82769 20 12.0003 20C14.173 20 14.4457 19.991 15.2987 19.9516C16.1504 19.9128 16.732 19.7777 17.2406 19.58C17.7666 19.3752 18.2125 19.1018 18.6578 18.6572C19.1031 18.2127 19.3758 17.7661 19.5806 17.2401C19.7784 16.7315 19.914 16.1499 19.9522 15.2982C19.991 14.4446 20 14.1725 20 12C20 9.82746 19.991 9.55475 19.9522 8.70176C19.9134 7.85005 19.7784 7.26816 19.5806 6.75994C19.3758 6.23392 19.1024 5.78803 18.6578 5.34278C18.2132 4.89754 17.7666 4.62426 17.2412 4.42003C16.732 4.22227 16.1504 4.08659 15.2993 4.04845C14.4463 4.00966 14.1736 4 12.001 4C9.82833 4 9.55542 4.00902 8.70195 4.04845Z" fill="#1D1D1D"/>
</svg>
