<svg xmlns="http://www.w3.org/2000/svg" viewBox="0 0 64 64" fill="none" aria-hidden="true">
  <path d="M10 22h8l3-5h22l3 5h8a4 4 0 0 1 4 4v24a4 4 0 0 1-4 4H10a4 4 0 0 1-4-4V26a4 4 0 0 1 4-4z" stroke="#6f3845" stroke-width="1.4" stroke-linejoin="round"/>
  <circle cx="32" cy="38" r="10" stroke="#6f3845" stroke-width="1.4"/>
  <circle cx="32" cy="38" r="5" stroke="#6f3845" stroke-width="1.2"/>
  <circle cx="47" cy="30" r="2" fill="#6f3845"/>
  <path d="M18 12c1.5-2 3.5-3 6-3" stroke="#6f3845" stroke-width="1.2" stroke-linecap="round"/>
  <path d="M40 9c2 0 4 1 5.5 2.5" stroke="#6f3845" stroke-width="1.2" stroke-linecap="round"/>
  <path d="M24 8l-1.5 3M34 7l1 3.5" stroke="#6f3845" stroke-width="1.1" stroke-linecap="round"/>
  <path d="M28 5c0-1 .8-1.8 1.8-1.8.8 0 1.5.5 1.7 1.2" stroke="#6f3845" stroke-width="1.1" stroke-linecap="round"/>
</svg>
