<svg width="24" height="24" viewBox="0 0 24 24" fill="none" xmlns="http://www.w3.org/2000/svg">
<path fill-rule="evenodd" clip-rule="evenodd" d="M20.587 7.67842C20.7121 7.28736 20.587 7 19.9914 7H18.0222C17.5215 7 17.2907 7.24823 17.1655 7.52196C17.1655 7.52196 16.1641 9.80966 14.7455 11.2957C14.2865 11.7258 14.0779 11.8627 13.8275 11.8627C13.7024 11.8627 13.5212 11.7258 13.5212 11.3348V7.67842C13.5212 7.20914 13.3759 7 12.9586 7H9.8641C9.5512 7 9.36302 7.2178 9.36302 7.42422C9.36302 7.86909 10.0723 7.97168 10.1454 9.22308V11.9409C10.1454 12.5368 10.0306 12.6448 9.78024 12.6448C9.11267 12.6448 7.4888 10.3469 6.5257 7.71751C6.33695 7.20644 6.14764 7 5.64437 7H3.67516C3.11253 7 3 7.24823 3 7.52196C3 8.0108 3.6676 10.4354 6.10848 13.642C7.73572 15.8319 10.0284 17.019 12.1146 17.019C13.3663 17.019 13.5212 16.7553 13.5212 16.3012V14.6461C13.5212 14.1188 13.6398 14.0135 14.0362 14.0135C14.3282 14.0135 14.8289 14.1504 15.9972 15.2062C17.3324 16.4576 17.5525 17.019 18.3036 17.019H20.2728C20.8354 17.019 21.1167 16.7553 20.9544 16.235C20.7768 15.7165 20.1394 14.9641 19.2935 14.0722C18.8345 13.5638 18.1461 13.0164 17.9374 12.7426C17.6453 12.3907 17.7288 12.2342 17.9374 11.9214C17.9374 11.9214 20.3366 8.75381 20.587 7.67842Z" fill="#1D1D1D"/>
</svg>
