<svg width="24" height="24" viewBox="0 0 24 24" fill="none" xmlns="http://www.w3.org/2000/svg">
<g id=" Icon">
<path id="Union" fill-rule="evenodd" clip-rule="evenodd" d="M11.5717 4C9.36068 4 7.56836 5.80157 7.56836 8.02385C7.56836 10.2462 9.36068 12.0479 11.5717 12.0479C13.7827 12.0479 15.575 10.2462 15.575 8.02385C15.575 5.80157 13.7827 4 11.5717 4ZM11.5717 9.68733C10.6577 9.68733 9.91679 8.94254 9.91679 8.02391C9.91679 7.10527 10.6577 6.36054 11.5717 6.36054C12.4856 6.36054 13.2266 7.10527 13.2266 8.02391C13.2266 8.94254 12.4856 9.68733 11.5717 9.68733ZM12.9785 15.2495C14.5812 14.9213 15.5416 14.1585 15.5924 14.1175C16.0614 13.7395 16.1367 13.0509 15.7606 12.5795C15.3846 12.1081 14.6996 12.0324 14.2305 12.4103C14.2206 12.4184 13.1962 13.2082 11.5108 13.2094C9.82544 13.2082 8.77944 12.4184 8.76952 12.4103C8.30043 12.0324 7.61542 12.1081 7.23936 12.5795C6.86325 13.0509 6.93859 13.7395 7.40757 14.1175C7.45907 14.1591 8.45913 14.9418 10.1067 15.2622L7.81049 17.6743C7.39319 18.1093 7.40573 18.8019 7.8385 19.2214C8.04973 19.4261 8.32197 19.5278 8.59399 19.5278C8.87918 19.5278 9.16408 19.4158 9.37766 19.1932L11.5109 16.9091L13.8595 19.208C14.2851 19.635 14.9742 19.6343 15.3989 19.2067C15.8237 18.7791 15.8231 18.0864 15.3977 17.6595L12.9785 15.2495ZM11.5088 13.2092C11.5073 13.2092 11.5104 13.2092 11.5088 13.2092C11.5073 13.2092 11.5104 13.2092 11.5088 13.2092Z" fill="#1F1F1F"/>
</g>
</svg>
