<svg width="24" height="24" viewBox="0 0 24 24" fill="none" xmlns="http://www.w3.org/2000/svg">
<g id=" Icon">
<path id="Union" fill-rule="evenodd" clip-rule="evenodd" d="M19.0016 8.37608C19.103 8.0591 19.0016 7.82617 18.5189 7.82617H16.9227C16.5169 7.82617 16.3298 8.02738 16.2283 8.24926C16.2283 8.24926 15.4166 10.1036 14.2667 11.3081C13.8946 11.6568 13.7255 11.7677 13.5226 11.7677C13.4211 11.7677 13.2743 11.6568 13.2743 11.3398V8.37608C13.2743 7.9957 13.1565 7.82617 12.8182 7.82617H10.3099C10.0563 7.82617 9.90379 8.00272 9.90379 8.17003C9.90379 8.53063 10.4787 8.61379 10.538 9.62814V11.8312C10.538 12.3142 10.4449 12.4017 10.242 12.4017C9.70086 12.4017 8.3846 10.5391 7.60393 8.40777C7.45094 7.99351 7.29749 7.82617 6.88955 7.82617H5.29336C4.83731 7.82617 4.74609 8.02738 4.74609 8.24926C4.74609 8.6455 5.28724 10.6108 7.26574 13.21C8.58474 14.9851 10.4431 15.9473 12.1342 15.9473C13.1488 15.9473 13.2743 15.7336 13.2743 15.3655V14.0239C13.2743 13.5965 13.3704 13.5111 13.6917 13.5111C13.9285 13.5111 14.3343 13.6221 15.2813 14.4779C16.3636 15.4923 16.542 15.9473 17.1508 15.9473H18.7469C19.203 15.9473 19.431 15.7336 19.2995 15.3118C19.1555 14.8915 18.6388 14.2816 17.9532 13.5587C17.5811 13.1466 17.0231 12.7029 16.854 12.4809C16.6172 12.1957 16.6849 12.0689 16.854 11.8153C16.854 11.8153 18.7987 9.24776 19.0016 8.37608Z" fill="#1F1F1F"/>
</g>
</svg>
