<svg width="24" height="24" viewBox="0 0 24 24" fill="none" xmlns="http://www.w3.org/2000/svg">
<g id=" Icon">
<path id="Union" d="M5.75419 11.5921C5.75419 11.5921 11.1949 9.2774 13.0819 8.46234C13.8052 8.13635 16.2583 7.09308 16.2583 7.09308C16.2583 7.09308 17.3905 6.63669 17.2961 7.74511C17.2646 8.20155 17.013 9.79899 16.7615 11.5269C16.384 13.972 15.9752 16.6453 15.9752 16.6453C15.9752 16.6453 15.9123 17.3951 15.3777 17.5255C14.8431 17.6559 13.9624 17.0691 13.8052 16.9387C13.6794 16.8409 11.4465 15.3738 10.6288 14.6566C10.4087 14.461 10.1571 14.0698 10.6603 13.6134C11.7925 12.5375 13.1448 11.2009 13.9624 10.3532C14.3399 9.96201 14.7172 9.04918 13.1448 10.1576C10.9119 11.7551 8.71043 13.2547 8.71043 13.2547C8.71043 13.2547 8.20723 13.5807 7.26376 13.2873C6.32025 12.994 5.21952 12.6027 5.21952 12.6027C5.21952 12.6027 4.46478 12.1137 5.75419 11.5921Z" fill="#1F1F1F"/>
</g>
</svg>
