<svg xmlns="http://www.w3.org/2000/svg" fill="none" viewBox="0 0 190 48"><g fill="#422EFF" clip-path="url(#a)"><path d="M38.258.998h6.48v4.848c1.095-1.853 2.69-3.29 4.782-4.312C51.614.513 53.99 0 56.655 0c3.235 0 6.102.761 8.598 2.281 2.496 1.52 4.435 3.647 5.815 6.38 1.379 2.734 2.07 5.884 2.07 9.449 0 3.564-.691 6.785-2.07 9.518-1.378 2.733-3.316 4.86-5.815 6.382-2.496 1.52-5.363 2.282-8.598 2.282-2.472 0-4.673-.452-6.6-1.354-1.927-.902-3.439-2.185-4.531-3.85V48h-7.266zm9.95 25.464c1.87 2.161 4.167 3.241 7.245 3.241 3.078 0 5.438-1.08 7.332-3.241 1.894-2.162 2.84-4.828 2.84-8.35 0-3.523-.946-6.118-2.84-8.28-1.896-2.16-4.254-3.241-7.332-3.241-3.078 0-5.375 1.082-7.245 3.241-1.87 2.162-2.806 4.804-2.806 8.28 0 3.476.935 6.19 2.806 8.35m37.07 7.546c-2.497-1.52-4.435-3.646-5.816-6.382-1.38-2.733-2.07-5.905-2.07-9.518 0-3.614.69-6.715 2.07-9.449 1.379-2.733 3.317-4.86 5.816-6.38C87.774.76 90.64-.002 93.875-.002c2.663 0 5.03.499 7.1 1.497 2.07.997 3.675 2.4 4.817 4.206V.998h6.41v34.294h-6.41v-4.778c-1.142 1.808-2.747 3.22-4.817 4.241-2.07 1.022-4.435 1.535-7.1 1.535-3.234 0-6.101-.762-8.597-2.282m2.44-7.5c1.877 2.13 4.32 3.193 7.334 3.193 3.014 0 5.431-1.063 7.264-3.192 1.83-2.13 2.744-4.928 2.744-8.4 0-3.47-.914-6.199-2.744-8.328-1.831-2.126-4.252-3.192-7.264-3.192-3.012 0-5.457 1.066-7.334 3.192-1.878 2.13-2.815 4.907-2.815 8.329 0 3.422.937 6.27 2.815 8.399Zm33.26 15.086h16.197c2.33 0 4.116-.63 5.353-1.89 1.236-1.26 1.824-3.078 1.824-5.455v-4.876c-1.238 1.616-2.714 2.817-4.498 3.602-1.784.782-3.746 1.176-5.888 1.176-3.188 0-6.029-.712-8.527-2.139-2.497-1.426-4.435-3.445-5.816-6.059-1.38-2.613-2.069-5.607-2.069-8.984 0-3.378.689-6.275 2.069-8.842 1.379-2.567 3.317-4.565 5.816-5.989C127.935.712 130.778 0 133.966 0c2.236 0 4.306.417 6.207 1.248a12.067 12.067 0 0 1 4.781 3.743V.998h6.411v32.67c0 4.849-1.214 8.449-3.64 10.802-2.426 2.354-5.851 3.53-10.276 3.53h-16.471zm6.739-16.971c1.77 1.96 4.076 2.942 6.926 2.942 2.851 0 5.157-.98 6.927-2.942 1.767-1.96 2.653-4.511 2.653-7.65 0-3.138-.886-5.595-2.653-7.51-1.77-1.914-4.079-2.872-6.927-2.872-2.847 0-5.156.958-6.926 2.871-1.77 1.916-2.653 4.42-2.653 7.512 0 3.091.883 5.689 2.653 7.649m33.72 6.071c-3.115-3.066-4.674-7.31-4.674-12.727 0-3.612.701-6.773 2.105-9.483a15.288 15.288 0 0 1 5.951-6.275c2.522-1.473 5.461-2.211 8.698-2.211 5.089 0 9.109 1.534 12.06 4.598C188.526 7.662 190 12.027 190 17.304c0 .761-.07 1.853-.213 3.28h-25.751c.19 2.899 1.259 4.747 3.211 6.316 1.951 1.567 4.78 2.225 8.493 2.225h12.12v6.167h-12.669c-6.136 0-10.637-1.534-13.752-4.598zm21.316-15.72v-.345c0-2.625-.821-4.74-2.462-6.354-1.64-1.609-3.893-2.417-6.759-2.417-2.867 0-5.017.84-6.725 2.52-1.711 1.682-2.635 3.879-2.775 6.596zM0 .998h8.579l12.87 17.147h-8.578zm21.449 17.147 12.87 17.146h-8.578L12.87 18.145h8.578Z"/><path d="M21.452 18.145 8.579 35.29H0l12.87-17.146h8.582ZM20.42 8.085 25.738.998h8.582l-8.408 11.203a3.434 3.434 0 0 1-5.492 0 3.43 3.43 0 0 1 0-4.116"/></g><defs><clipPath id="a"><path fill="#fff" d="M0 0h190v48H0z"/></clipPath></defs></svg>