<svg xmlns="http://www.w3.org/2000/svg" fill="none" viewBox="0 0 557 251"><path fill="#422EFF" d="M108.972 163.132V42.376h-.696L26.148 163.132zm27.84 0h33.408v26.1h-33.408V247h-27.84v-57.768H.744v-28.536L113.148.268h23.664zm93.495-37.584c0 9.28.232 19.72.696 31.32.696 11.368 2.552 22.156 5.568 32.364 3.248 9.976 8.352 18.444 15.312 25.404 6.96 6.96 16.704 10.44 29.232 10.44 12.528 0 22.272-3.48 29.232-10.44 6.96-6.96 11.948-15.428 14.964-25.404 3.248-10.208 5.104-20.996 5.568-32.364.696-11.6 1.044-22.04 1.044-31.32 0-6.032-.116-12.644-.348-19.836 0-7.424-.58-14.732-1.74-21.924-.928-7.424-2.436-14.616-4.524-21.576-1.856-6.96-4.756-12.992-8.7-18.096-3.712-5.336-8.468-9.628-14.268-12.876-5.8-3.248-12.876-4.872-21.228-4.872-8.352 0-15.428 1.624-21.228 4.872-5.8 3.248-10.672 7.54-14.616 12.876-3.712 5.104-6.612 11.136-8.7 18.096a208.772 208.772 0 0 0-4.524 21.576 226.517 226.517 0 0 0-1.74 21.924zm-31.32.348c0-9.048.232-18.444.696-28.188.464-9.744 1.624-19.256 3.48-28.536 1.856-9.28 4.524-18.096 8.004-26.448 3.48-8.352 8.236-15.66 14.268-21.924 6.032-6.264 13.572-11.252 22.62-14.964 9.28-3.712 20.3-5.568 33.06-5.568 12.76 0 23.664 1.856 32.712 5.568 9.28 3.712 16.936 8.7 22.968 14.964 6.032 6.264 10.788 13.572 14.268 21.924 3.48 8.352 6.148 17.168 8.004 26.448 1.856 9.28 3.016 18.792 3.48 28.536.464 9.744.696 19.14.696 28.188 0 9.048-.232 18.444-.696 28.188-.464 9.744-1.624 19.256-3.48 28.536-1.856 9.28-4.524 18.096-8.004 26.448-3.48 8.12-8.236 15.312-14.268 21.576-6.032 6.264-13.572 11.252-22.62 14.964-9.048 3.48-20.068 5.22-33.06 5.22-12.76 0-23.78-1.74-33.06-5.22-9.048-3.712-16.588-8.7-22.62-14.964-6.032-6.264-10.788-13.456-14.268-21.576-3.48-8.352-6.148-17.168-8.004-26.448-1.856-9.28-3.016-18.792-3.48-28.536a593.177 593.177 0 0 1-.696-28.188m296.727 37.236V42.376h-.696L412.89 163.132zm27.84 0h33.408v26.1h-33.408V247h-27.84v-57.768H387.486v-28.536L499.89.268h23.664z"/></svg>