<svg width="24" height="24" viewBox="0 0 24 24" fill="none" xmlns="http://www.w3.org/2000/svg">
<path fill-rule="evenodd" clip-rule="evenodd" d="M13.4143 6.34304C14.5859 5.17146 16.4854 5.17146 17.6569 6.34304C18.8285 7.51461 18.8285 9.4141 17.6569 10.5857L16.2427 11.9999C15.8522 12.3904 15.8522 13.0236 16.2427 13.4141C16.6332 13.8046 17.2664 13.8046 17.6569 13.4141L19.0711 11.9999C21.0238 10.0473 21.0238 6.88144 19.0711 4.92882C17.1185 2.9762 13.9527 2.9762 12.0001 4.92882L10.5859 6.34303C10.1953 6.73356 10.1953 7.36672 10.5859 7.75725C10.9764 8.14777 11.6096 8.14777 12.0001 7.75725L13.4143 6.34304ZM15.5358 8.46477C15.9264 8.85529 15.9264 9.48846 15.5358 9.87898L9.87898 15.5358C9.48846 15.9264 8.85529 15.9264 8.46477 15.5358C8.07424 15.1453 8.07424 14.5121 8.46477 14.1216L14.1216 8.46477C14.5121 8.07424 15.1453 8.07424 15.5358 8.46477ZM7.75774 10.5859C8.14826 10.9764 8.14826 11.6096 7.75774 12.0001L6.34352 13.4143C5.17195 14.5859 5.17195 16.4854 6.34352 17.6569C7.5151 18.8285 9.41459 18.8285 10.5862 17.6569L12.0004 16.2427C12.3909 15.8522 13.0241 15.8522 13.4146 16.2427C13.8051 16.6332 13.8051 17.2664 13.4146 17.6569L12.0004 19.0711C10.0478 21.0238 6.88193 21.0238 4.92931 19.0711C2.97669 17.1185 2.97669 13.9527 4.92931 12.0001L6.34352 10.5859C6.73405 10.1953 7.36721 10.1953 7.75774 10.5859Z" fill="#1F1F1F"/>
</svg>
