<svg xmlns="http://www.w3.org/2000/svg" xmlns:xlink="http://www.w3.org/1999/xlink"><symbol fill="none" id="icon-arrow-down" viewBox="0 0 24 24"><path stroke="currentColor" stroke-linecap="round" stroke-linejoin="round" stroke-width="2" d="m19 9-7 7-7-7"/></symbol><use xlink:href="#icon-arrow-down" width="24" height="24" y="0"/><view id="icon-arrow-down-view" viewBox="0 0 24 24"/><symbol fill="none" id="icon-arrow-left" viewBox="0 0 24 25"><path fill="currentColor" fill-rule="evenodd" d="M11.707 7.207a1 1 0 0 0-1.414-1.414l-6 6-.004.004-.007.007a.997.997 0 0 0 .012 1.404l5.999 6a1 1 0 0 0 1.414-1.415L7.414 13.5H19a1 1 0 1 0 0-2H7.414z" clip-rule="evenodd"/></symbol><use xlink:href="#icon-arrow-left" width="24" height="25" y="24"/><view id="icon-arrow-left-view" viewBox="0 24 24 25"/><symbol fill="none" id="icon-arrow-right" viewBox="0 0 24 25"><path fill="currentColor" fill-rule="evenodd" d="M13.707 5.793a1 1 0 1 0-1.414 1.414l4.293 4.293H5a1 1 0 1 0 0 2h11.586l-4.293 4.293a1 1 0 0 0 1.414 1.414l6-6 .01-.01a.997.997 0 0 0-.01-1.405z" clip-rule="evenodd"/></symbol><use xlink:href="#icon-arrow-right" width="24" height="25" y="49"/><view id="icon-arrow-right-view" viewBox="0 49 24 25"/><symbol fill="none" id="icon-blockquote" viewBox="0 0 24 24"><path fill="currentColor" d="M20.725 13.609V21h-7.316v-8.6q0-4.033 2.215-5.914Q17.839 4.537 21.262 4L22 7.561q-2.282.403-3.557 1.546-1.275 1.142-1.275 3.292v1.21zm-11.477 0V21H2v-8.6q0-4.033 2.215-5.914Q6.428 4.537 9.852 4l.739 3.561q-2.283.403-3.557 1.546-1.275 1.142-1.276 3.292v1.21z"/></symbol><use xlink:href="#icon-blockquote" width="24" height="24" y="74"/><view id="icon-blockquote-view" viewBox="0 74 24 24"/><symbol fill="none" id="icon-calendar" viewBox="0 0 24 24"><path stroke="currentColor" stroke-linecap="round" stroke-linejoin="round" stroke-width="2" d="M4 8h16m-1-4H5a1 1 0 0 0-1 1v14a1 1 0 0 0 1 1h14a1 1 0 0 0 1-1V5a1 1 0 0 0-1-1m-3-2v2M8 2v2"/></symbol><use xlink:href="#icon-calendar" width="24" height="24" y="98"/><view id="icon-calendar-view" viewBox="0 98 24 24"/><symbol fill="none" id="icon-checkmark" viewBox="0 0 24 24"><path stroke="currentColor" stroke-linecap="round" stroke-linejoin="round" stroke-width="2" d="m4 12 4.95 4.95L19.556 6.343"/></symbol><use xlink:href="#icon-checkmark" width="24" height="24" y="122"/><view id="icon-checkmark-view" viewBox="0 122 24 24"/><symbol fill="none" id="icon-chevron-down" viewBox="0 0 24 24"><path stroke="currentColor" stroke-linecap="round" stroke-linejoin="round" stroke-width="2" d="m19 9-7 7-7-7"/></symbol><use xlink:href="#icon-chevron-down" width="24" height="24" y="146"/><view id="icon-chevron-down-view" viewBox="0 146 24 24"/><symbol fill="none" id="icon-chevron-left-sm" viewBox="0 0 24 24"><path stroke="currentColor" stroke-linecap="round" stroke-linejoin="round" stroke-width="2" d="m14 16-4-4 4-4"/></symbol><use xlink:href="#icon-chevron-left-sm" width="24" height="24" y="170"/><view id="icon-chevron-left-sm-view" viewBox="0 170 24 24"/><symbol fill="none" id="icon-chevron-left" viewBox="0 0 24 24"><path stroke="currentColor" stroke-linecap="round" stroke-linejoin="round" stroke-width="2" d="m15 19-7-7 7-7"/></symbol><use xlink:href="#icon-chevron-left" width="24" height="24" y="194"/><view id="icon-chevron-left-view" viewBox="0 194 24 24"/><symbol fill="none" id="icon-chevron-right-sm" viewBox="0 0 24 24"><path stroke="currentColor" stroke-linecap="round" stroke-linejoin="round" stroke-width="2" d="m10 8 4 4-4 4"/></symbol><use xlink:href="#icon-chevron-right-sm" width="24" height="24" y="218"/><view id="icon-chevron-right-sm-view" viewBox="0 218 24 24"/><symbol fill="none" id="icon-chevron-right" viewBox="0 0 24 24"><path stroke="currentColor" stroke-linecap="round" stroke-linejoin="round" stroke-width="2" d="m9 5 7 7-7 7"/></symbol><use xlink:href="#icon-chevron-right" width="24" height="24" y="242"/><view id="icon-chevron-right-view" viewBox="0 242 24 24"/><symbol fill="none" id="icon-clip" viewBox="0 0 24 24"><path stroke="currentColor" stroke-linecap="round" stroke-linejoin="round" stroke-width="2" d="M4.535 11.464 11.43 4.57a5.25 5.25 0 0 1 7.425 7.425L10.9 19.95A3.5 3.5 0 1 1 5.95 15l7.955-7.955A1.75 1.75 0 0 1 16.38 9.52l-6.894 6.894"/></symbol><use xlink:href="#icon-clip" width="24" height="24" y="266"/><view id="icon-clip-view" viewBox="0 266 24 24"/><symbol fill="none" id="icon-close" viewBox="0 0 24 24"><path stroke="currentColor" stroke-linecap="round" stroke-linejoin="round" stroke-width="2" d="M18 18 6 6m12 0L6 18"/></symbol><use xlink:href="#icon-close" width="24" height="24" y="290"/><view id="icon-close-view" viewBox="0 290 24 24"/><symbol fill="none" id="icon-error" viewBox="0 0 32 32"><path fill="#ec4646" d="M16 28c6.627 0 12-5.373 12-12S22.627 4 16 4 4 9.373 4 16s5.373 12 12 12"/><path stroke="#fafafa" stroke-linecap="round" stroke-linejoin="round" stroke-width="2" d="M15.938 20.6h.133v.133h-.134zM16 11.267V16.6"/></symbol><use xlink:href="#icon-error" width="32" height="32" y="314"/><view id="icon-error-view" viewBox="0 314 32 32"/><symbol fill="none" id="icon-info" viewBox="0 0 32 32"><path fill="#3aa1ec" d="M16 28c6.627 0 12-5.373 12-12S22.627 4 16 4 4 9.373 4 16s5.373 12 12 12"/><path stroke="#fafafa" stroke-linecap="round" stroke-linejoin="round" stroke-width="2" d="M16 14.667v6.666m-.062-10.666h.133v.133h-.134z"/></symbol><use xlink:href="#icon-info" width="32" height="32" y="346"/><view id="icon-info-view" viewBox="0 346 32 32"/><symbol fill="none" id="icon-lens" viewBox="0 0 24 24"><path stroke="currentColor" stroke-linecap="round" stroke-linejoin="round" stroke-width="2" d="M10 17a7 7 0 1 0 0-14 7 7 0 0 0 0 14m5-2 6 6"/></symbol><use xlink:href="#icon-lens" width="24" height="24" y="378"/><view id="icon-lens-view" viewBox="0 378 24 24"/><symbol fill="none" id="icon-map-pin" viewBox="0 0 50 50"><path fill="#422eff" fill-rule="evenodd" d="M26.525 45.179c12.549-13.396 15.142-17.487 15.142-25.423 0-8.247-7.462-15.59-16.667-15.59S8.334 11.509 8.334 19.756c0 7.936 2.593 12.027 15.156 25.424.82.874 2.216.873 3.035-.001M25 26.042a5.208 5.208 0 1 0 0-10.417 5.208 5.208 0 0 0 0 10.417" clip-rule="evenodd"/><path fill="#fff" d="M25 26.042a5.208 5.208 0 1 0 0-10.417 5.208 5.208 0 0 0 0 10.417"/></symbol><use xlink:href="#icon-map-pin" width="50" height="50" y="402"/><view id="icon-map-pin-view" viewBox="0 402 50 50"/><symbol fill="none" id="icon-minus" viewBox="0 0 24 24"><path stroke="currentColor" stroke-linecap="round" stroke-linejoin="round" stroke-width="2" d="M6 12h12"/></symbol><use xlink:href="#icon-minus" width="24" height="24" y="452"/><view id="icon-minus-view" viewBox="0 452 24 24"/><symbol id="icon-pass-hide" viewBox="0 0 24 24"><path fill="currentColor" d="M2 5.27 3.28 4 20 20.72 18.73 22l-3.08-3.08c-1.15.38-2.37.58-3.65.58-5 0-9.27-3.11-11-7.5.69-1.76 1.79-3.31 3.19-4.54zM12 9a3 3 0 0 1 3 3 3 3 0 0 1-.17 1L11 9.17A3 3 0 0 1 12 9m0-4.5c5 0 9.27 3.11 11 7.5a11.8 11.8 0 0 1-4 5.19l-1.42-1.43A9.86 9.86 0 0 0 20.82 12 9.82 9.82 0 0 0 12 6.5c-1.09 0-2.16.18-3.16.5L7.3 5.47c1.44-.62 3.03-.97 4.7-.97M3.18 12A9.82 9.82 0 0 0 12 17.5c.69 0 1.37-.07 2-.21L11.72 15A3.064 3.064 0 0 1 9 12.28L5.6 8.87c-.99.85-1.82 1.91-2.42 3.13"/></symbol><use xlink:href="#icon-pass-hide" width="24" height="24" y="476"/><view id="icon-pass-hide-view" viewBox="0 476 24 24"/><symbol id="icon-pass-show" viewBox="0 0 24 24"><path fill="currentColor" d="M12 9a3 3 0 0 1 3 3 3 3 0 0 1-3 3 3 3 0 0 1-3-3 3 3 0 0 1 3-3m0-4.5c5 0 9.27 3.11 11 7.5-1.73 4.39-6 7.5-11 7.5S2.73 16.39 1 12c1.73-4.39 6-7.5 11-7.5M3.18 12a9.821 9.821 0 0 0 17.64 0 9.821 9.821 0 0 0-17.64 0"/></symbol><use xlink:href="#icon-pass-show" width="24" height="24" y="500"/><view id="icon-pass-show-view" viewBox="0 500 24 24"/><symbol fill="none" id="icon-pause" viewBox="0 0 24 24"><path stroke="currentColor" stroke-linecap="round" stroke-linejoin="round" stroke-width="2" d="M20 20V4a1 1 0 0 0-1-1h-3a1 1 0 0 0-1 1v16a1 1 0 0 0 1 1h3a1 1 0 0 0 1-1M9 20V4a1 1 0 0 0-1-1H5a1 1 0 0 0-1 1v16a1 1 0 0 0 1 1h3a1 1 0 0 0 1-1"/></symbol><use xlink:href="#icon-pause" width="24" height="24" y="524"/><view id="icon-pause-view" viewBox="0 524 24 24"/><symbol fill="none" id="icon-play" viewBox="0 0 24 24"><path stroke="currentColor" stroke-linecap="round" stroke-linejoin="round" stroke-width="2" d="M20 12 5 4v16z"/></symbol><use xlink:href="#icon-play" width="24" height="24" y="548"/><view id="icon-play-view" viewBox="0 548 24 24"/><symbol fill="none" id="icon-plus" viewBox="0 0 24 24"><path stroke="currentColor" stroke-linecap="round" stroke-linejoin="round" stroke-width="2" d="M6 12h12m-6 6V6"/></symbol><use xlink:href="#icon-plus" width="24" height="24" y="572"/><view id="icon-plus-view" viewBox="0 572 24 24"/><symbol fill="none" id="icon-radio" viewBox="0 0 32 32"><circle cx="16" cy="16" r="8" fill="currentColor"/></symbol><use xlink:href="#icon-radio" width="32" height="32" y="596"/><view id="icon-radio-view" viewBox="0 596 32 32"/><symbol fill="none" id="icon-spinner" viewBox="0 0 24 24"><mask id="a" fill="#fff"><path d="M20.002 12c.551 0 1.004.448.943.996a9 9 0 1 1-9.941-9.94c.548-.062.996.391.996.942 0 .552-.45.991-.995 1.07a7.003 7.003 0 1 0 7.927 7.927c.079-.546.518-.995 1.07-.995"/></mask><path stroke="#111" stroke-width="4" d="M20.002 12c.551 0 1.004.448.943.996a9 9 0 1 1-9.941-9.94c.548-.062.996.391.996.942 0 .552-.45.991-.995 1.07a7.003 7.003 0 1 0 7.927 7.927c.079-.546.518-.995 1.07-.995Z" mask="url(#a)"/></symbol><use xlink:href="#icon-spinner" width="24" height="24" y="628"/><view id="icon-spinner-view" viewBox="0 628 24 24"/><symbol fill="none" id="icon-success" viewBox="0 0 32 32"><path fill="#60cf5d" d="M16 28c6.627 0 12-5.373 12-12S22.627 4 16 4 4 9.373 4 16s5.373 12 12 12"/><path stroke="#fafafa" stroke-linecap="round" stroke-linejoin="round" stroke-width="2" d="m20 13.333-5.333 5.334L12 16"/></symbol><use xlink:href="#icon-success" width="32" height="32" y="652"/><view id="icon-success-view" viewBox="0 652 32 32"/><symbol fill="none" id="icon-warning" viewBox="0 0 32 32"><path fill="#ffd646" d="M16 28c6.627 0 12-5.373 12-12S22.627 4 16 4 4 9.373 4 16s5.373 12 12 12"/><path stroke="#fafafa" stroke-linecap="round" stroke-linejoin="round" stroke-width="2" d="M15.938 20.6h.133v.133h-.134zM16 11.267V16.6"/></symbol><use xlink:href="#icon-warning" width="32" height="32" y="684"/><view id="icon-warning-view" viewBox="0 684 32 32"/></svg>